<svg xmlns="http://www.w3.org/2000/svg" xmlns:xlink="http://www.w3.org/1999/xlink" viewBox="0 0 5000 5000"><defs><style>.cls-1{fill:none;}.cls-2{fill:#2e55b7;}.cls-3{clip-path:url(#clip-path);}</style><clipPath id="clip-path"><path class="cls-1" d="M2659.85,3245.24c-139.26,74.93-298.12,118.43-467.19,120.84-247.29,3.52-475.23-81.42-653.68-225.54a1015.34,1015.34,0,0,1-378.72-777.85l-1.19-82.92-2.61-183.39-28.2-1978.21L2130.72-913.28l167.62-2.39L3161.69-76.59l34.36,2410.26C3201.65,2726.77,2983.68,3071,2659.85,3245.24Z"/></clipPath></defs><title>Plan de travail 1</title><g id="Calque_2" data-name="Calque 2"><path class="cls-2" d="M3149,2655.86c-47.64,150.8-131.25,292.71-250.81,412.27C2723.28,3243,2500.62,3341,2272.21,3362a1015.41,1015.41,0,0,1-813.72-293.85L1270.16,2879.8,0,1609.65V-76H1193.67L2898.16,1628.46C3176.15,1906.45,3259.75,2305.22,3149,2655.86Z"/></g><g id="Calque_1" data-name="Calque 1"><g class="cls-3"><image width="514" height="478" transform="translate(1283 857) scale(5.18 5.25)" xlink:href="../MyPortFolio/src/assets/images/NogueWafoBrice.png"/></g></g></svg>